<?xml version="1.0" encoding="UTF-8"?><svg xmlns="http://www.w3.org/2000/svg" xmlns:xlink="http://www.w3.org/1999/xlink" fill-opacity="1" color-rendering="auto" color-interpolation="auto" text-rendering="auto" stroke="black" stroke-linecap="square" width="730" stroke-miterlimit="10" shape-rendering="auto" stroke-opacity="1" fill="black" stroke-dasharray="none" font-weight="normal" stroke-width="1" height="896" font-family="'Dialog'" font-style="normal" stroke-linejoin="miter" font-size="12px" stroke-dashoffset="0" image-rendering="auto">
  <!--Generated by ySVG 2.5-->
  <defs id="genericDefs"/>
  <g>
    <defs id="defs1">
      <linearGradient x1="602" gradientUnits="userSpaceOnUse" x2="682" y1="185" y2="225" id="linearGradient1" spreadMethod="reflect">
        <stop stop-opacity="1" stop-color="rgb(232,238,247)" offset="0%"/>
        <stop stop-opacity="1" stop-color="rgb(183,201,227)" offset="100%"/>
      </linearGradient>
      <linearGradient x1="553.5" gradientUnits="userSpaceOnUse" x2="730.5" y1="269" y2="309" id="linearGradient2" spreadMethod="reflect">
        <stop stop-opacity="1" stop-color="rgb(232,238,247)" offset="0%"/>
        <stop stop-opacity="1" stop-color="rgb(183,201,227)" offset="100%"/>
      </linearGradient>
      <linearGradient x1="553.5" gradientUnits="userSpaceOnUse" x2="730.5" y1="353" y2="393" id="linearGradient3" spreadMethod="reflect">
        <stop stop-opacity="1" stop-color="rgb(232,238,247)" offset="0%"/>
        <stop stop-opacity="1" stop-color="rgb(183,201,227)" offset="100%"/>
      </linearGradient>
      <linearGradient x1="553.5" gradientUnits="userSpaceOnUse" x2="730.5" y1="442" y2="482" id="linearGradient4" spreadMethod="reflect">
        <stop stop-opacity="1" stop-color="rgb(232,238,247)" offset="0%"/>
        <stop stop-opacity="1" stop-color="rgb(183,201,227)" offset="100%"/>
      </linearGradient>
      <linearGradient x1="553.5" gradientUnits="userSpaceOnUse" x2="730.5" y1="531" y2="571" id="linearGradient5" spreadMethod="reflect">
        <stop stop-opacity="1" stop-color="rgb(232,238,247)" offset="0%"/>
        <stop stop-opacity="1" stop-color="rgb(183,201,227)" offset="100%"/>
      </linearGradient>
      <linearGradient x1="428" gradientUnits="userSpaceOnUse" x2="605" y1="699" y2="739" id="linearGradient6" spreadMethod="reflect">
        <stop stop-opacity="1" stop-color="rgb(232,238,247)" offset="0%"/>
        <stop stop-opacity="1" stop-color="rgb(183,201,227)" offset="100%"/>
      </linearGradient>
      <linearGradient x1="602" gradientUnits="userSpaceOnUse" x2="682" y1="620" y2="660" id="linearGradient7" spreadMethod="reflect">
        <stop stop-opacity="1" stop-color="rgb(232,238,247)" offset="0%"/>
        <stop stop-opacity="1" stop-color="rgb(183,201,227)" offset="100%"/>
      </linearGradient>
      <linearGradient x1="682" gradientUnits="userSpaceOnUse" x2="859" y1="699" y2="739" id="linearGradient8" spreadMethod="reflect">
        <stop stop-opacity="1" stop-color="rgb(232,238,247)" offset="0%"/>
        <stop stop-opacity="1" stop-color="rgb(183,201,227)" offset="100%"/>
      </linearGradient>
      <linearGradient x1="476.5" gradientUnits="userSpaceOnUse" x2="556.5" y1="815" y2="855" id="linearGradient9" spreadMethod="reflect">
        <stop stop-opacity="1" stop-color="rgb(232,238,247)" offset="0%"/>
        <stop stop-opacity="1" stop-color="rgb(183,201,227)" offset="100%"/>
      </linearGradient>
      <linearGradient x1="730.5" gradientUnits="userSpaceOnUse" x2="810.5" y1="815" y2="855" id="linearGradient10" spreadMethod="reflect">
        <stop stop-opacity="1" stop-color="rgb(232,238,247)" offset="0%"/>
        <stop stop-opacity="1" stop-color="rgb(183,201,227)" offset="100%"/>
      </linearGradient>
      <linearGradient x1="476.5" gradientUnits="userSpaceOnUse" x2="556.5" y1="1010.2" y2="1050.2" id="linearGradient11" spreadMethod="reflect">
        <stop stop-opacity="1" stop-color="rgb(232,238,247)" offset="0%"/>
        <stop stop-opacity="1" stop-color="rgb(183,201,227)" offset="100%"/>
      </linearGradient>
      <linearGradient x1="428" gradientUnits="userSpaceOnUse" x2="605" y1="909.6" y2="949.6" id="linearGradient12" spreadMethod="reflect">
        <stop stop-opacity="1" stop-color="rgb(232,238,247)" offset="0%"/>
        <stop stop-opacity="1" stop-color="rgb(183,201,227)" offset="100%"/>
      </linearGradient>
      <linearGradient x1="682" gradientUnits="userSpaceOnUse" x2="859" y1="909.6" y2="949.6" id="linearGradient13" spreadMethod="reflect">
        <stop stop-opacity="1" stop-color="rgb(232,238,247)" offset="0%"/>
        <stop stop-opacity="1" stop-color="rgb(183,201,227)" offset="100%"/>
      </linearGradient>
      <linearGradient x1="889" gradientUnits="userSpaceOnUse" x2="1066" y1="909.6" y2="949.6" id="linearGradient14" spreadMethod="reflect">
        <stop stop-opacity="1" stop-color="rgb(232,238,247)" offset="0%"/>
        <stop stop-opacity="1" stop-color="rgb(183,201,227)" offset="100%"/>
      </linearGradient>
      <linearGradient x1="730.5" gradientUnits="userSpaceOnUse" x2="810.5" y1="1010.2" y2="1050.2" id="linearGradient15" spreadMethod="reflect">
        <stop stop-opacity="1" stop-color="rgb(232,238,247)" offset="0%"/>
        <stop stop-opacity="1" stop-color="rgb(183,201,227)" offset="100%"/>
      </linearGradient>
      <linearGradient x1="937.5" gradientUnits="userSpaceOnUse" x2="1017.5" y1="1010.2" y2="1050.2" id="linearGradient16" spreadMethod="reflect">
        <stop stop-opacity="1" stop-color="rgb(232,238,247)" offset="0%"/>
        <stop stop-opacity="1" stop-color="rgb(183,201,227)" offset="100%"/>
      </linearGradient>
      <clipPath clipPathUnits="userSpaceOnUse" id="clipPath1">
        <path d="M0 0 L730 0 L730 896 L0 896 L0 0 Z"/>
      </clipPath>
      <clipPath clipPathUnits="userSpaceOnUse" id="clipPath2">
        <path d="M351 170 L1081 170 L1081 1066 L351 1066 L351 170 Z"/>
      </clipPath>
    </defs>
    <g fill="white" text-rendering="geometricPrecision" shape-rendering="geometricPrecision" transform="translate(-351,-170)" stroke="white">
      <rect x="351" width="730" height="896" y="170" clip-path="url(#clipPath2)" stroke="none"/>
    </g>
    <g fill="url(#linearGradient1)" text-rendering="geometricPrecision" shape-rendering="geometricPrecision" transform="matrix(1,0,0,1,-351,-170)" stroke="url(#linearGradient1)">
      <circle r="20" clip-path="url(#clipPath2)" cx="642" cy="205" stroke="none"/>
    </g>
    <g text-rendering="geometricPrecision" stroke-miterlimit="1.45" shape-rendering="geometricPrecision" transform="matrix(1,0,0,1,-351,-170)" stroke-linecap="butt">
      <circle fill="none" r="20" clip-path="url(#clipPath2)" cx="642" cy="205"/>
    </g>
    <g fill="url(#linearGradient2)" text-rendering="geometricPrecision" shape-rendering="geometricPrecision" transform="matrix(1,0,0,1,-351,-170)" stroke="url(#linearGradient2)">
      <path d="M553.5 269 L730.5 269 L730.5 309 L553.5 309 Z" stroke="none" clip-path="url(#clipPath2)"/>
    </g>
    <g text-rendering="geometricPrecision" stroke-miterlimit="1.45" shape-rendering="geometricPrecision" transform="matrix(1,0,0,1,-351,-170)" stroke-linecap="butt">
      <path fill="none" d="M553.5 269 L730.5 269 L730.5 309 L553.5 309 Z" clip-path="url(#clipPath2)"/>
      <text x="612.5186" xml:space="preserve" y="293.1543" clip-path="url(#clipPath2)" font-family="sans-serif" stroke="none">load units</text>
    </g>
    <g fill="url(#linearGradient3)" text-rendering="geometricPrecision" shape-rendering="geometricPrecision" transform="matrix(1,0,0,1,-351,-170)" stroke="url(#linearGradient3)">
      <path d="M553.5 353 L730.5 353 L730.5 393 L553.5 393 Z" stroke="none" clip-path="url(#clipPath2)"/>
    </g>
    <g text-rendering="geometricPrecision" stroke-miterlimit="1.45" shape-rendering="geometricPrecision" transform="matrix(1,0,0,1,-351,-170)" stroke-linecap="butt">
      <path fill="none" d="M553.5 353 L730.5 353 L730.5 393 L553.5 393 Z" clip-path="url(#clipPath2)"/>
      <text x="591.1846" xml:space="preserve" y="377.1543" clip-path="url(#clipPath2)" font-family="sans-serif" stroke="none">select dimension</text>
    </g>
    <g fill="url(#linearGradient4)" text-rendering="geometricPrecision" shape-rendering="geometricPrecision" transform="matrix(1,0,0,1,-351,-170)" stroke="url(#linearGradient4)">
      <path d="M553.5 442 L730.5 442 L730.5 482 L553.5 482 Z" stroke="none" clip-path="url(#clipPath2)"/>
    </g>
    <g text-rendering="geometricPrecision" stroke-miterlimit="1.45" shape-rendering="geometricPrecision" transform="matrix(1,0,0,1,-351,-170)" stroke-linecap="butt">
      <path fill="none" d="M553.5 442 L730.5 442 L730.5 482 L553.5 482 Z" clip-path="url(#clipPath2)"/>
      <text x="607.998" xml:space="preserve" y="466.1543" clip-path="url(#clipPath2)" font-family="sans-serif" stroke="none">select level</text>
    </g>
    <g fill="url(#linearGradient5)" text-rendering="geometricPrecision" shape-rendering="geometricPrecision" transform="matrix(1,0,0,1,-351,-170)" stroke="url(#linearGradient5)">
      <path d="M553.5 531 L730.5 531 L730.5 571 L553.5 571 Z" stroke="none" clip-path="url(#clipPath2)"/>
    </g>
    <g text-rendering="geometricPrecision" stroke-miterlimit="1.45" shape-rendering="geometricPrecision" transform="matrix(1,0,0,1,-351,-170)" stroke-linecap="butt">
      <path fill="none" d="M553.5 531 L730.5 531 L730.5 571 L553.5 571 Z" clip-path="url(#clipPath2)"/>
      <text x="571.4824" xml:space="preserve" y="555.1543" clip-path="url(#clipPath2)" font-family="sans-serif" stroke="none">Session.methods.exists</text>
    </g>
    <g fill="url(#linearGradient6)" text-rendering="geometricPrecision" shape-rendering="geometricPrecision" transform="matrix(1,0,0,1,-351,-170)" stroke="url(#linearGradient6)">
      <path d="M428 699 L605 699 L605 739 L428 739 Z" stroke="none" clip-path="url(#clipPath2)"/>
    </g>
    <g text-rendering="geometricPrecision" stroke-miterlimit="1.45" shape-rendering="geometricPrecision" transform="matrix(1,0,0,1,-351,-170)" stroke-linecap="butt">
      <path fill="none" d="M428 699 L605 699 L605 739 L428 739 Z" clip-path="url(#clipPath2)"/>
      <text x="448.6982" xml:space="preserve" y="723.1543" clip-path="url(#clipPath2)" font-family="sans-serif" stroke="none">show launch container</text>
    </g>
    <g fill="url(#linearGradient7)" text-rendering="geometricPrecision" shape-rendering="geometricPrecision" transform="matrix(1,0,0,1,-351,-170)" stroke="url(#linearGradient7)">
      <path d="M642 620 L682 640 L642 660 L602 640 Z" stroke="none" clip-path="url(#clipPath2)"/>
    </g>
    <g text-rendering="geometricPrecision" stroke-miterlimit="1.45" shape-rendering="geometricPrecision" transform="matrix(1,0,0,1,-351,-170)" stroke-linecap="butt">
      <path fill="none" d="M642 620 L682 640 L642 660 L602 640 Z" clip-path="url(#clipPath2)"/>
    </g>
    <g fill="url(#linearGradient8)" text-rendering="geometricPrecision" shape-rendering="geometricPrecision" transform="matrix(1,0,0,1,-351,-170)" stroke="url(#linearGradient8)">
      <path d="M682 699 L859 699 L859 739 L682 739 Z" stroke="none" clip-path="url(#clipPath2)"/>
    </g>
    <g text-rendering="geometricPrecision" stroke-miterlimit="1.45" shape-rendering="geometricPrecision" transform="matrix(1,0,0,1,-351,-170)" stroke-linecap="butt">
      <path fill="none" d="M682 699 L859 699 L859 739 L682 739 Z" clip-path="url(#clipPath2)"/>
      <text x="698.0166" xml:space="preserve" y="723.1543" clip-path="url(#clipPath2)" font-family="sans-serif" stroke="none">show decision container</text>
    </g>
    <g fill="url(#linearGradient9)" text-rendering="geometricPrecision" shape-rendering="geometricPrecision" transform="matrix(1,0,0,1,-351,-170)" stroke="url(#linearGradient9)">
      <path d="M516.5 815 L556.5 835 L516.5 855 L476.5 835 Z" stroke="none" clip-path="url(#clipPath2)"/>
    </g>
    <g text-rendering="geometricPrecision" stroke-miterlimit="1.45" shape-rendering="geometricPrecision" transform="matrix(1,0,0,1,-351,-170)" stroke-linecap="butt">
      <path fill="none" d="M516.5 815 L556.5 835 L516.5 855 L476.5 835 Z" clip-path="url(#clipPath2)"/>
    </g>
    <g fill="url(#linearGradient10)" text-rendering="geometricPrecision" shape-rendering="geometricPrecision" transform="matrix(1,0,0,1,-351,-170)" stroke="url(#linearGradient10)">
      <path d="M770.5 815 L810.5 835 L770.5 855 L730.5 835 Z" stroke="none" clip-path="url(#clipPath2)"/>
    </g>
    <g text-rendering="geometricPrecision" stroke-miterlimit="1.45" shape-rendering="geometricPrecision" transform="matrix(1,0,0,1,-351,-170)" stroke-linecap="butt">
      <path fill="none" d="M770.5 815 L810.5 835 L770.5 855 L730.5 835 Z" clip-path="url(#clipPath2)"/>
    </g>
    <g fill="url(#linearGradient11)" text-rendering="geometricPrecision" shape-rendering="geometricPrecision" transform="matrix(1,0,0,1,-351,-170)" stroke="url(#linearGradient11)">
      <rect x="476.5" y="1010.2" clip-path="url(#clipPath2)" width="80" rx="20" ry="20" height="40" stroke="none"/>
    </g>
    <g text-rendering="geometricPrecision" stroke-miterlimit="1.45" shape-rendering="geometricPrecision" transform="matrix(1,0,0,1,-351,-170)" stroke-linecap="butt">
      <rect x="476.5" y="1010.2" clip-path="url(#clipPath2)" fill="none" width="80" rx="20" ry="20" height="40"/>
    </g>
    <g fill="url(#linearGradient12)" text-rendering="geometricPrecision" shape-rendering="geometricPrecision" transform="matrix(1,0,0,1,-351,-170)" stroke="url(#linearGradient12)">
      <path d="M428 909.6 L605 909.6 L605 949.6 L428 949.6 Z" stroke="none" clip-path="url(#clipPath2)"/>
    </g>
    <g text-rendering="geometricPrecision" stroke-miterlimit="1.45" shape-rendering="geometricPrecision" transform="matrix(1,0,0,1,-351,-170)" stroke-linecap="butt">
      <path fill="none" d="M428 909.6 L605 909.6 L605 949.6 L428 949.6 Z" clip-path="url(#clipPath2)"/>
      <text x="449.5215" xml:space="preserve" y="933.7543" clip-path="url(#clipPath2)" font-family="sans-serif" stroke="none">Session.methods.start</text>
    </g>
    <g fill="url(#linearGradient13)" text-rendering="geometricPrecision" shape-rendering="geometricPrecision" transform="matrix(1,0,0,1,-351,-170)" stroke="url(#linearGradient13)">
      <path d="M682 909.6 L859 909.6 L859 949.6 L682 949.6 Z" stroke="none" clip-path="url(#clipPath2)"/>
    </g>
    <g text-rendering="geometricPrecision" stroke-miterlimit="1.45" shape-rendering="geometricPrecision" transform="matrix(1,0,0,1,-351,-170)" stroke-linecap="butt">
      <path fill="none" d="M682 909.6 L859 909.6 L859 949.6 L682 949.6 Z" clip-path="url(#clipPath2)"/>
      <text x="691.4072" xml:space="preserve" y="933.7543" clip-path="url(#clipPath2)" font-family="sans-serif" stroke="none">Session.methods.continue</text>
    </g>
    <g fill="url(#linearGradient14)" text-rendering="geometricPrecision" shape-rendering="geometricPrecision" transform="matrix(1,0,0,1,-351,-170)" stroke="url(#linearGradient14)">
      <path d="M889 909.6 L1066 909.6 L1066 949.6 L889 949.6 Z" stroke="none" clip-path="url(#clipPath2)"/>
    </g>
    <g text-rendering="geometricPrecision" stroke-miterlimit="1.45" shape-rendering="geometricPrecision" transform="matrix(1,0,0,1,-351,-170)" stroke-linecap="butt">
      <path fill="none" d="M889 909.6 L1066 909.6 L1066 949.6 L889 949.6 Z" clip-path="url(#clipPath2)"/>
      <text x="904.3633" xml:space="preserve" y="933.7543" clip-path="url(#clipPath2)" font-family="sans-serif" stroke="none">Session.methods.restart</text>
    </g>
    <g fill="url(#linearGradient15)" text-rendering="geometricPrecision" shape-rendering="geometricPrecision" transform="matrix(1,0,0,1,-351,-170)" stroke="url(#linearGradient15)">
      <rect x="730.5" y="1010.2" clip-path="url(#clipPath2)" width="80" rx="20" ry="20" height="40" stroke="none"/>
    </g>
    <g text-rendering="geometricPrecision" stroke-miterlimit="1.45" shape-rendering="geometricPrecision" transform="matrix(1,0,0,1,-351,-170)" stroke-linecap="butt">
      <rect x="730.5" y="1010.2" clip-path="url(#clipPath2)" fill="none" width="80" rx="20" ry="20" height="40"/>
    </g>
    <g fill="url(#linearGradient16)" text-rendering="geometricPrecision" shape-rendering="geometricPrecision" transform="matrix(1,0,0,1,-351,-170)" stroke="url(#linearGradient16)">
      <rect x="937.5" y="1010.2" clip-path="url(#clipPath2)" width="80" rx="20" ry="20" height="40" stroke="none"/>
    </g>
    <g text-rendering="geometricPrecision" stroke-miterlimit="1.45" shape-rendering="geometricPrecision" transform="matrix(1,0,0,1,-351,-170)" stroke-linecap="butt">
      <rect x="937.5" y="1010.2" clip-path="url(#clipPath2)" fill="none" width="80" rx="20" ry="20" height="40"/>
    </g>
    <g text-rendering="geometricPrecision" stroke-miterlimit="1.45" shape-rendering="geometricPrecision" transform="matrix(1,0,0,1,-351,-170)" stroke-linecap="butt">
      <path fill="none" d="M642 224.9746 L642 261.0233" clip-path="url(#clipPath2)"/>
    </g>
    <g text-rendering="geometricPrecision" stroke-miterlimit="1.45" shape-rendering="geometricPrecision" transform="matrix(1,0,0,1,-351,-170)" stroke-linecap="butt">
      <path d="M642 269.0233 L647 257.0233 L642 260.0233 L637 257.0233 Z" stroke="none" clip-path="url(#clipPath2)"/>
      <path fill="none" d="M642 308.9746 L642 345.0233" clip-path="url(#clipPath2)"/>
      <path d="M642 353.0233 L647 341.0233 L642 344.0233 L637 341.0233 Z" clip-path="url(#clipPath2)" stroke="none"/>
      <path fill="none" d="M642 393.0337 L642 434.0308" clip-path="url(#clipPath2)"/>
      <path d="M642 442.0308 L647 430.0308 L642 433.0308 L637 430.0308 Z" clip-path="url(#clipPath2)" stroke="none"/>
      <path fill="none" d="M642 482.0337 L642 523.0308" clip-path="url(#clipPath2)"/>
      <path d="M642 531.0308 L647 519.0308 L642 522.0308 L637 519.0308 Z" clip-path="url(#clipPath2)" stroke="none"/>
      <path fill="none" d="M642 571.0337 L642 612.0308" clip-path="url(#clipPath2)"/>
      <path d="M642 620.0308 L647 608.0308 L642 611.0308 L637 608.0308 Z" clip-path="url(#clipPath2)" stroke="none"/>
      <path fill="none" d="M602.0153 640 L516.5 640 L516.5 690.98" clip-path="url(#clipPath2)"/>
      <path d="M516.5 698.98 L521.5 686.98 L516.5 689.98 L511.5 686.98 Z" clip-path="url(#clipPath2)" stroke="none"/>
      <path fill="none" d="M681.9994 640 L770.5 640 L770.5 690.98" clip-path="url(#clipPath2)"/>
      <path d="M770.5 698.98 L775.5 686.98 L770.5 689.98 L765.5 686.98 Z" clip-path="url(#clipPath2)" stroke="none"/>
      <path fill="none" d="M516.5 739.0225 L516.5 806.9891" clip-path="url(#clipPath2)"/>
      <path d="M516.5 814.9891 L521.5 802.9891 L516.5 805.9891 L511.5 802.9891 Z" clip-path="url(#clipPath2)" stroke="none"/>
      <path fill="none" d="M476.4867 835 L366 835 L366 462 L545.4927 462" clip-path="url(#clipPath2)"/>
      <path d="M553.4927 462 L541.4927 457 L544.4927 462 L541.4927 467 Z" clip-path="url(#clipPath2)" stroke="none"/>
      <path fill="none" d="M770.5 739.0225 L770.5 806.9891" clip-path="url(#clipPath2)"/>
      <path d="M770.5 814.9891 L775.5 802.9891 L770.5 805.9891 L765.5 802.9891 Z" clip-path="url(#clipPath2)" stroke="none"/>
      <path fill="none" d="M810.5067 835 L929.1325 835 L929.1325 462 L738.5021 462" clip-path="url(#clipPath2)"/>
      <path d="M730.5021 462 L742.5021 467 L739.5021 462 L742.5021 457 Z" clip-path="url(#clipPath2)" stroke="none"/>
      <path fill="none" d="M516.5 855.0009 L516.5 901.6025" clip-path="url(#clipPath2)"/>
      <path d="M516.5 909.6025 L521.5 897.6025 L516.5 900.6025 L511.5 897.6025 Z" clip-path="url(#clipPath2)" stroke="none"/>
      <path fill="none" d="M516.5 949.5923 L516.5 1002.1661" clip-path="url(#clipPath2)"/>
      <path d="M516.5 1010.1661 L521.5 998.1661 L516.5 1001.1661 L511.5 998.1661 Z" clip-path="url(#clipPath2)" stroke="none"/>
      <path fill="none" d="M770.5 855.0009 L770.5 901.6025" clip-path="url(#clipPath2)"/>
      <path d="M770.5 909.6025 L775.5 897.6025 L770.5 900.6025 L765.5 897.6025 Z" clip-path="url(#clipPath2)" stroke="none"/>
      <path fill="none" d="M791.3971 844.55 L926.4697 906.2789" clip-path="url(#clipPath2)"/>
      <path d="M933.7458 909.6041 L924.9099 900.0687 L925.5602 905.8632 L920.7533 909.1639 Z" clip-path="url(#clipPath2)" stroke="none"/>
      <path fill="none" d="M770.5 949.5923 L770.5 1002.1661" clip-path="url(#clipPath2)"/>
      <path d="M770.5 1010.1661 L775.5 998.1661 L770.5 1001.1661 L765.5 998.1661 Z" clip-path="url(#clipPath2)" stroke="none"/>
      <path fill="none" d="M977.5 949.5923 L977.5 1002.1661" clip-path="url(#clipPath2)"/>
      <path d="M977.5 1010.1661 L982.5 998.1661 L977.5 1001.1661 L972.5 998.1661 Z" clip-path="url(#clipPath2)" stroke="none"/>
    </g>
  </g>
</svg>
